<svg width="60" height="60" viewBox="0 0 60 60" fill="none" xmlns="http://www.w3.org/2000/svg">
<mask id="mask0_2063_18" style="mask-type:alpha" maskUnits="userSpaceOnUse" x="0" y="0" width="60" height="60">
<rect width="60" height="60" fill="#D9D9D9"/>
</mask>
<g mask="url(#mask0_2063_18)">
<path d="M30 55C24.0417 55 18.7708 53.125 14.1875 49.375C9.60417 45.625 6.70833 40.8333 5.5 35H10.625C11.7917 39.4167 14.1667 43.0208 17.75 45.8125C21.3333 48.6042 25.4167 50 30 50C33.5833 50 36.9167 49.1146 40 47.3438C43.0833 45.5729 45.5 43.125 47.25 40H40V35H55V50H50V45C47.625 48.1667 44.6875 50.625 41.1875 52.375C37.6875 54.125 33.9583 55 30 55ZM30 37.5C27.9167 37.5 26.1458 36.7708 24.6875 35.3125C23.2292 33.8542 22.5 32.0833 22.5 30C22.5 27.9167 23.2292 26.1458 24.6875 24.6875C26.1458 23.2292 27.9167 22.5 30 22.5C32.0833 22.5 33.8542 23.2292 35.3125 24.6875C36.7708 26.1458 37.5 27.9167 37.5 30C37.5 32.0833 36.7708 33.8542 35.3125 35.3125C33.8542 36.7708 32.0833 37.5 30 37.5ZM5 25V10H10V15C12.375 11.8333 15.3125 9.375 18.8125 7.625C22.3125 5.875 26.0417 5 30 5C35.9583 5 41.2292 6.875 45.8125 10.625C50.3958 14.375 53.2917 19.1667 54.5 25H49.375C48.2083 20.5833 45.8333 16.9792 42.25 14.1875C38.6667 11.3958 34.5833 10 30 10C26.4167 10 23.0833 10.8854 20 12.6562C16.9167 14.4271 14.5 16.875 12.75 20H20V25H5Z" fill="white"/>
</g>
</svg>
