<svg width="100" height="100" viewBox="0 0 100 100" fill="none" xmlns="http://www.w3.org/2000/svg">
<path d="M89.2084 36.0002C89.2084 36.0002 89.2084 36.0002 89.2084 35.7919C86.2725 27.7761 80.9455 20.8555 73.9479 15.9663C66.9503 11.077 58.6198 8.45508 50.0834 8.45508C41.5469 8.45508 33.2164 11.077 26.2188 15.9663C19.2212 20.8555 13.8942 27.7761 10.9584 35.7919C10.9584 35.7919 10.9584 35.7919 10.9584 36.0002C7.67973 45.0456 7.67973 54.9548 10.9584 64.0002C10.9584 64.0002 10.9584 64.0002 10.9584 64.2085C13.8942 72.2243 19.2212 79.1449 26.2188 84.0341C33.2164 88.9233 41.5469 91.5453 50.0834 91.5453C58.6198 91.5453 66.9503 88.9233 73.9479 84.0341C80.9455 79.1449 86.2725 72.2243 89.2084 64.2085C89.2084 64.2085 89.2084 64.2085 89.2084 64.0002C92.487 54.9548 92.487 45.0456 89.2084 36.0002ZM17.75 58.3335C16.3052 52.8719 16.3052 47.1285 17.75 41.6669H25.5C24.8335 47.2024 24.8335 52.798 25.5 58.3335H17.75ZM21.1667 66.6669H27C27.978 70.3829 29.3759 73.9754 31.1667 77.3752C27.0805 74.5916 23.6646 70.9338 21.1667 66.6669ZM27 33.3335H21.1667C23.6287 29.0797 27.0008 25.423 31.0417 22.6252C29.294 26.0304 27.9381 29.6228 27 33.3335ZM45.8334 82.0835C40.7157 78.328 37.1215 72.8553 35.7084 66.6669H45.8334V82.0835ZM45.8334 58.3335H33.9167C33.1392 52.8052 33.1392 47.1952 33.9167 41.6669H45.8334V58.3335ZM45.8334 33.3335H35.7084C37.1215 27.1451 40.7157 21.6724 45.8334 17.9169V33.3335ZM78.8334 33.3335H73C72.0221 29.6175 70.6242 26.0249 68.8334 22.6252C72.9196 25.4088 76.3355 29.0666 78.8334 33.3335ZM54.1667 17.9169C59.2844 21.6724 62.8786 27.1451 64.2917 33.3335H54.1667V17.9169ZM54.1667 82.0835V66.6669H64.2917C62.8786 72.8553 59.2844 78.328 54.1667 82.0835ZM66.0834 58.3335H54.1667V41.6669H66.0834C66.8609 47.1952 66.8609 52.8052 66.0834 58.3335ZM68.9584 77.3752C70.7492 73.9754 72.147 70.3829 73.125 66.6669H78.9584C76.4605 70.9338 73.0446 74.5916 68.9584 77.3752ZM82.25 58.3335H74.5C74.8389 55.5688 75.0059 52.7856 75 50.0002C75.0046 47.2148 74.8376 44.4317 74.5 41.6669H82.25C83.6949 47.1285 83.6949 52.8719 82.25 58.3335Z" fill="white"/>
</svg>
