<svg width="52" height="52" viewBox="0 0 52 52" fill="none" xmlns="http://www.w3.org/2000/svg">
<g id="location-arrow">
<path id="Vector" d="M44.5293 6.43882C43.7112 5.64979 42.6865 5.10843 41.5737 4.87733C40.4609 4.64623 39.3054 4.73484 38.2408 5.1329L9.04513 15.7978C7.86741 16.2197 6.84969 16.9967 6.13245 18.0217C5.41522 19.0467 5.03384 20.269 5.04097 21.52C5.0481 22.771 5.44338 23.9889 6.17226 25.0057C6.90113 26.0224 7.92764 26.7878 9.1101 27.1962L20.1377 31.0597C20.3888 31.1478 20.6191 31.2867 20.8141 31.4678C21.0092 31.6489 21.1648 31.8682 21.2714 32.1121L25.7387 42.9303C26.1945 44.0723 26.9914 45.0459 28.0207 45.7186C29.05 46.3913 30.2616 46.7303 31.4906 46.6894L31.6364 46.6854C32.8874 46.628 34.0891 46.1806 35.073 45.406C36.057 44.6313 36.7739 43.5681 37.1233 42.3655L46.158 12.5837C46.4868 11.5095 46.5085 10.3647 46.2207 9.27876C45.9329 8.19285 45.347 7.20912 44.5293 6.43882ZM42.269 11.3782L33.1307 41.1837C33.0255 41.5606 32.8024 41.894 32.494 42.135C32.1857 42.3761 31.8083 42.5121 31.4171 42.5232C31.0284 42.5403 30.6436 42.4387 30.314 42.2319C29.9844 42.0251 29.7256 41.7229 29.5719 41.3654L25.1046 30.5472C24.7807 29.7611 24.2951 29.052 23.6792 28.4658C23.0634 27.8796 22.3312 27.4295 21.5301 27.1447L10.4816 23.2818C10.1091 23.1569 9.78517 22.918 9.55571 22.599C9.32625 22.28 9.20282 21.8969 9.20285 21.504C9.19236 21.1127 9.30733 20.7284 9.53096 20.4072C9.75458 20.0861 10.0751 19.8449 10.4457 19.719L39.7038 9.05231C40.039 8.90475 40.4098 8.85746 40.7713 8.91615C41.1329 8.97483 41.4697 9.13698 41.741 9.38299C42.0123 9.62901 42.2066 9.94835 42.3003 10.3024C42.394 10.6565 42.3832 11.0301 42.269 11.3782Z" fill="white"/>
</g>
</svg>
