<svg width="68" height="84" viewBox="0 0 68 84" fill="none" xmlns="http://www.w3.org/2000/svg">
<path d="M54.8333 29.5002V21.1668C54.8333 15.6415 52.6384 10.3424 48.7313 6.43544C44.8243 2.52843 39.5253 0.333496 34 0.333496C28.4746 0.333496 23.1756 2.52843 19.2686 6.43544C15.3616 10.3424 13.1666 15.6415 13.1666 21.1668V29.5002C9.85142 29.5002 6.672 30.8171 4.32779 33.1613C1.98359 35.5055 0.666626 38.685 0.666626 42.0002V71.1668C0.666626 74.482 1.98359 77.6615 4.32779 80.0057C6.672 82.3499 9.85142 83.6668 13.1666 83.6668H54.8333C58.1485 83.6668 61.3279 82.3499 63.6721 80.0057C66.0163 77.6615 67.3333 74.482 67.3333 71.1668V42.0002C67.3333 38.685 66.0163 35.5055 63.6721 33.1613C61.3279 30.8171 58.1485 29.5002 54.8333 29.5002ZM21.5 21.1668C21.5 17.8516 22.8169 14.6722 25.1611 12.328C27.5053 9.98379 30.6848 8.66683 34 8.66683C37.3152 8.66683 40.4946 9.98379 42.8388 12.328C45.183 14.6722 46.5 17.8516 46.5 21.1668V29.5002H21.5V21.1668ZM59 71.1668C59 72.2719 58.561 73.3317 57.7796 74.1131C56.9982 74.8945 55.9384 75.3335 54.8333 75.3335H13.1666C12.0616 75.3335 11.0017 74.8945 10.2203 74.1131C9.43895 73.3317 8.99996 72.2719 8.99996 71.1668V42.0002C8.99996 40.8951 9.43895 39.8353 10.2203 39.0539C11.0017 38.2725 12.0616 37.8335 13.1666 37.8335H54.8333C55.9384 37.8335 56.9982 38.2725 57.7796 39.0539C58.561 39.8353 59 40.8951 59 42.0002V71.1668Z" fill="white"/>
</svg>
