<svg width="80" height="80" viewBox="0 0 80 80" fill="none" xmlns="http://www.w3.org/2000/svg">
<rect width="80" height="80" rx="40" fill="#E97525"/>
<path d="M57.5293 24.4388C56.7112 23.6498 55.6865 23.1084 54.5737 22.8773C53.4609 22.6462 52.3054 22.7348 51.2408 23.1329L22.0451 33.7978C20.8674 34.2197 19.8497 34.9967 19.1325 36.0217C18.4152 37.0467 18.0338 38.269 18.041 39.52C18.0481 40.771 18.4434 41.9889 19.1723 43.0057C19.9011 44.0224 20.9276 44.7878 22.1101 45.1962L33.1377 49.0597C33.3888 49.1478 33.6191 49.2867 33.8141 49.4678C34.0092 49.6489 34.1648 49.8682 34.2714 50.1121L38.7387 60.9303C39.1945 62.0723 39.9914 63.0459 41.0207 63.7186C42.05 64.3913 43.2616 64.7303 44.4906 64.6894L44.6364 64.6854C45.8874 64.628 47.0891 64.1806 48.073 63.406C49.057 62.6313 49.7739 61.5681 50.1233 60.3655L59.158 30.5837C59.4868 29.5095 59.5085 28.3647 59.2207 27.2788C58.9329 26.1928 58.347 25.2091 57.5293 24.4388ZM55.269 29.3782L46.1307 59.1837C46.0255 59.5606 45.8024 59.894 45.494 60.135C45.1857 60.3761 44.8083 60.5121 44.4171 60.5232C44.0284 60.5403 43.6436 60.4387 43.314 60.2319C42.9844 60.0251 42.7256 59.7229 42.5719 59.3654L38.1046 48.5472C37.7807 47.7611 37.2951 47.052 36.6792 46.4658C36.0634 45.8796 35.3312 45.4295 34.5301 45.1447L23.4816 41.2818C23.1091 41.1569 22.7852 40.918 22.5557 40.599C22.3262 40.28 22.2028 39.8969 22.2029 39.504C22.1924 39.1127 22.3073 38.7284 22.531 38.4072C22.7546 38.0861 23.0751 37.8449 23.4457 37.719L52.7038 27.0523C53.039 26.9048 53.4098 26.8575 53.7713 26.9161C54.1329 26.9748 54.4697 27.137 54.741 27.383C55.0123 27.629 55.2066 27.9484 55.3003 28.3024C55.394 28.6565 55.3832 29.0301 55.269 29.3782Z" fill="white"/>
</svg>
