<svg width="100" height="100" viewBox="0 0 100 100" fill="none" xmlns="http://www.w3.org/2000/svg">
<path d="M91.6666 40.2915C91.4035 39.5294 90.9249 38.86 90.2889 38.3645C89.6528 37.8689 88.8867 37.5686 88.0833 37.4999L64.375 34.0415L53.75 12.4999C53.4088 11.7954 52.8761 11.2013 52.2129 10.7856C51.5496 10.3699 50.7827 10.1494 50 10.1494C49.2172 10.1494 48.4503 10.3699 47.7871 10.7856C47.1239 11.2013 46.5912 11.7954 46.25 12.4999L35.625 33.9999L11.9167 37.4999C11.1455 37.6095 10.4205 37.9331 9.82395 38.4339C9.22739 38.9347 8.78315 39.5927 8.54165 40.3332C8.32059 41.0568 8.30075 41.827 8.48427 42.5611C8.66779 43.2952 9.04773 43.9654 9.58332 44.4999L26.7917 61.1665L22.625 84.8332C22.4568 85.6183 22.519 86.4353 22.8041 87.1858C23.0892 87.9364 23.5851 88.5886 24.2322 89.064C24.8792 89.5394 25.6499 89.8177 26.4514 89.8655C27.2528 89.9132 28.0511 89.7284 28.75 89.3332L50 78.2082L71.25 89.3332C71.8348 89.6631 72.4952 89.8354 73.1666 89.8332C74.0493 89.8363 74.9101 89.5591 75.625 89.0415C76.2714 88.5785 76.7719 87.9401 77.0672 87.2018C77.3625 86.4634 77.4404 85.656 77.2916 84.8749L73.125 61.2082L90.3333 44.5415C90.9349 44.0319 91.3795 43.362 91.6156 42.6097C91.8516 41.8573 91.8693 41.0535 91.6666 40.2915ZM66.0417 56.9582C65.5594 57.4266 65.1976 58.0047 64.9872 58.6431C64.7768 59.2816 64.724 59.9616 64.8333 60.6249L67.8333 78.1249L52.1667 69.7915C51.5578 69.4903 50.8876 69.3336 50.2083 69.3336C49.529 69.3336 48.8589 69.4903 48.25 69.7915L32.5833 78.1249L35.5833 60.6249C35.6926 59.9616 35.6399 59.2816 35.4294 58.6431C35.219 58.0047 34.8573 57.4266 34.375 56.9582L21.875 44.4582L39.4167 41.9165C40.0916 41.8226 40.7333 41.5646 41.2854 41.1651C41.8375 40.7655 42.2831 40.2367 42.5833 39.6249L50 23.7499L57.8333 39.6665C58.1335 40.2784 58.5792 40.8072 59.1312 41.2068C59.6833 41.6063 60.325 41.8643 61 41.9582L78.5416 44.4999L66.0417 56.9582Z" fill="white"/>
</svg>
