<svg width="100" height="100" viewBox="0 0 100 100" fill="none" xmlns="http://www.w3.org/2000/svg">
<g id="Interface essential/Trash">
<g id="Icon">
<path d="M78.2918 29.1668C76.4738 29.1668 75.0001 30.6406 75.0001 32.4585V69.2918C75.0001 77.0468 68.7134 83.3335 60.9584 83.3335H37.2917C29.5368 83.3335 23.2501 77.0468 23.2501 69.2918V32.4585C23.2501 30.6406 21.7764 29.1668 19.9584 29.1668C18.1405 29.1668 16.6667 30.6406 16.6667 32.4585V69.2918C16.781 80.7163 26.075 89.9174 37.5001 89.9168H61.1668C72.5105 89.8039 81.6789 80.6356 81.7918 69.2918V32.4585C81.7936 31.5482 81.4183 30.6777 80.7552 30.0541C80.0921 29.4304 79.2003 29.1092 78.2918 29.1668Z" fill="white"/>
<path fill-rule="evenodd" clip-rule="evenodd" d="M78.2917 23.2502H19.9584C18.1405 23.2502 16.6667 21.7764 16.6667 19.9585C16.6667 18.1406 18.1405 16.6668 19.9584 16.6668H31.0001L35.9167 11.3335C37.7962 9.42271 40.3616 8.34256 43.0417 8.3335H55.2084C57.8495 8.33346 60.3825 9.38262 62.2501 11.2502L67.2501 16.6668H78.2917C80.1097 16.6668 81.5834 18.1406 81.5834 19.9585C81.5834 21.7764 80.1097 23.2502 78.2917 23.2502ZM55.2084 14.9168H43.0417C42.2088 14.9171 41.4061 15.2293 40.7917 15.7918L40.0001 16.6252H58.2501L57.4584 15.7918C56.8486 15.2221 56.0429 14.9088 55.2084 14.9168Z" fill="white"/>
<path d="M33.5001 36.6252V49.1252C33.5001 50.8511 34.8992 52.2502 36.6251 52.2502C38.351 52.2502 39.7501 50.8511 39.7501 49.1252V36.6252C39.7501 34.8993 38.351 33.5002 36.6251 33.5002C34.8992 33.5002 33.5001 34.8993 33.5001 36.6252Z" fill="white"/>
<path d="M46.0001 36.6252V69.9585C46.0001 71.6844 47.3992 73.0835 49.1251 73.0835C50.851 73.0835 52.2501 71.6844 52.2501 69.9585V36.6252C52.2501 34.8993 50.851 33.5002 49.1251 33.5002C47.3992 33.5002 46.0001 34.8993 46.0001 36.6252Z" fill="white"/>
<path d="M58.5001 36.6252V49.1252C58.5001 50.8511 59.8992 52.2502 61.6251 52.2502C63.351 52.2502 64.7501 50.8511 64.7501 49.1252V36.6252C64.7501 34.8993 63.351 33.5002 61.6251 33.5002C59.8992 33.5002 58.5001 34.8993 58.5001 36.6252Z" fill="white"/>
</g>
</g>
</svg>
