<svg width="100" height="100" viewBox="0 0 100 100" fill="none" xmlns="http://www.w3.org/2000/svg">
<path d="M82.9583 64.6252H64.0833C62.9782 64.6252 61.9184 65.0642 61.137 65.8456C60.3556 66.627 59.9166 67.6868 59.9166 68.7918C59.9166 69.8969 60.3556 70.9567 61.137 71.7381C61.9184 72.5195 62.9782 72.9585 64.0833 72.9585H74.0833C69.4872 77.7616 63.5599 81.0807 57.0631 82.4893C50.5663 83.898 43.7966 83.3318 37.624 80.8637C31.4514 78.3955 26.1577 74.1381 22.4232 68.6384C18.6887 63.1387 16.684 56.6479 16.6666 50.0002C16.6666 48.8951 16.2276 47.8353 15.4462 47.0539C14.6648 46.2725 13.605 45.8335 12.4999 45.8335C11.3949 45.8335 10.335 46.2725 9.55364 47.0539C8.77224 47.8353 8.33325 48.8951 8.33325 50.0002C8.35528 58.1368 10.7592 66.089 15.2483 72.8753C19.7374 79.6616 26.1152 84.985 33.5947 88.1886C41.0742 91.3922 49.328 92.3358 57.3375 90.9028C65.347 89.4699 72.7617 85.7232 78.6666 80.1252V87.5002C78.6666 88.6052 79.1056 89.665 79.887 90.4464C80.6684 91.2279 81.7282 91.6668 82.8333 91.6668C83.9383 91.6668 84.9981 91.2279 85.7795 90.4464C86.5609 89.665 86.9999 88.6052 86.9999 87.5002V68.7502C86.9896 67.6736 86.5631 66.6429 85.8096 65.8739C85.0562 65.1049 84.0343 64.6574 82.9583 64.6252ZM49.9999 8.3335C39.3182 8.36396 29.0561 12.4956 21.3333 19.8752V12.5002C21.3333 11.3951 20.8943 10.3353 20.1129 9.55388C19.3315 8.77248 18.2717 8.3335 17.1666 8.3335C16.0615 8.3335 15.0017 8.77248 14.2203 9.55388C13.4389 10.3353 12.9999 11.3951 12.9999 12.5002V31.2502C12.9999 32.3552 13.4389 33.415 14.2203 34.1964C15.0017 34.9778 16.0615 35.4168 17.1666 35.4168H35.9166C37.0217 35.4168 38.0815 34.9778 38.8629 34.1964C39.6443 33.415 40.0833 32.3552 40.0833 31.2502C40.0833 30.1451 39.6443 29.0853 38.8629 28.3039C38.0815 27.5225 37.0217 27.0835 35.9166 27.0835H25.9166C30.5102 22.283 36.4336 18.9647 42.9266 17.5548C49.4195 16.1448 56.1857 16.7074 62.3566 19.1704C68.5275 21.6334 73.8216 25.8844 77.5592 31.3777C81.2969 36.871 83.3076 43.3559 83.3333 50.0002C83.3333 51.1052 83.7722 52.165 84.5536 52.9464C85.335 53.7278 86.3949 54.1668 87.4999 54.1668C88.605 54.1668 89.6648 53.7278 90.4462 52.9464C91.2276 52.165 91.6666 51.1052 91.6666 50.0002C91.6666 44.5284 90.5889 39.1103 88.4949 34.055C86.401 28.9998 83.3318 24.4065 79.4627 20.5374C75.5936 16.6683 71.0003 13.5991 65.9451 11.5052C60.8898 9.41124 55.4717 8.3335 49.9999 8.3335Z" fill="white"/>
</svg>
