<svg width="100" height="100" viewBox="0 0 100 100" fill="none" xmlns="http://www.w3.org/2000/svg">
<path d="M79.1666 29.1667H74.9999V25C74.9999 21.6848 73.683 18.5054 71.3388 16.1612C68.9946 13.817 65.8151 12.5 62.4999 12.5H20.8333C17.518 12.5 14.3386 13.817 11.9944 16.1612C9.65021 18.5054 8.33325 21.6848 8.33325 25V75C8.33325 78.3152 9.65021 81.4946 11.9944 83.8388C14.3386 86.183 17.518 87.5 20.8333 87.5H79.1666C82.4818 87.5 85.6612 86.183 88.0054 83.8388C90.3496 81.4946 91.6666 78.3152 91.6666 75V41.6667C91.6666 38.3515 90.3496 35.172 88.0054 32.8278C85.6612 30.4836 82.4818 29.1667 79.1666 29.1667ZM20.8333 20.8333H62.4999C63.605 20.8333 64.6648 21.2723 65.4462 22.0537C66.2276 22.8351 66.6666 23.8949 66.6666 25V29.1667H20.8333C19.7282 29.1667 18.6684 28.7277 17.887 27.9463C17.1056 27.1649 16.6666 26.1051 16.6666 25C16.6666 23.8949 17.1056 22.8351 17.887 22.0537C18.6684 21.2723 19.7282 20.8333 20.8333 20.8333ZM83.3333 62.5H79.1666C78.0615 62.5 77.0017 62.061 76.2203 61.2796C75.4389 60.4982 74.9999 59.4384 74.9999 58.3333C74.9999 57.2283 75.4389 56.1685 76.2203 55.3871C77.0017 54.6057 78.0615 54.1667 79.1666 54.1667H83.3333V62.5ZM83.3333 45.8333H79.1666C75.8514 45.8333 72.672 47.1503 70.3278 49.4945C67.9835 51.8387 66.6666 55.0181 66.6666 58.3333C66.6666 61.6485 67.9835 64.828 70.3278 67.1722C72.672 69.5164 75.8514 70.8333 79.1666 70.8333H83.3333V75C83.3333 76.1051 82.8943 77.1649 82.1129 77.9463C81.3315 78.7277 80.2717 79.1667 79.1666 79.1667H20.8333C19.7282 79.1667 18.6684 78.7277 17.887 77.9463C17.1056 77.1649 16.6666 76.1051 16.6666 75V36.7917C18.0052 37.2626 19.4142 37.5021 20.8333 37.5H79.1666C80.2717 37.5 81.3315 37.939 82.1129 38.7204C82.8943 39.5018 83.3333 40.5616 83.3333 41.6667V45.8333Z" fill="white"/>
</svg>
